<svg xmlns="http://www.w3.org/2000/svg" width="768" height="1152" viewBox="0 0 640 960" role="img" aria-label="Queen of Cups tarot card">
  <desc>Ornate occult tarot card illustration, mysterious and richly layered. Warm antique palette, deep burgundy, umber, bronze gold, smoky teal, parchment highlights. Complex celestial geometry, astrological circles, sigils, constellation lines, engraved border. Center symbol should be iconic and readable, surrounded by ritual details and subtle texture. No photorealism, no modern UI, no plain flat icon, no empty background.</desc>
  <defs>
    <linearGradient id="bg-cups_queen" x1="0" x2="1" y1="0" y2="1">
      <stop offset="0" stop-color="#1e1516"/>
      <stop offset=".24" stop-color="#6f5b91"/>
      <stop offset=".52" stop-color="#315f78"/>
      <stop offset=".78" stop-color="#342019"/>
      <stop offset="1" stop-color="#111516"/>
    </linearGradient>
    <radialGradient id="glow-cups_queen" cx="50%" cy="38%" r="64%">
      <stop offset="0" stop-color="#d4b66c" stop-opacity=".62"/>
      <stop offset=".45" stop-color="#d4b66c" stop-opacity=".16"/>
      <stop offset="1" stop-color="#000" stop-opacity="0"/>
    </radialGradient>
    <filter id="grain-cups_queen">
      <feTurbulence type="fractalNoise" baseFrequency=".85" numOctaves="2" seed="34" result="noise"/>
      <feColorMatrix type="saturate" values="0"/>
      <feComponentTransfer>
        <feFuncA type="table" tableValues="0 .11"/>
      </feComponentTransfer>
    </filter>
    <filter id="shadow-cups_queen" x="-30%" y="-30%" width="160%" height="160%">
      <feDropShadow dx="0" dy="14" stdDeviation="16" flood-color="#130c08" flood-opacity=".52"/>
    </filter>
  </defs>

  <rect width="640" height="960" rx="42" fill="#1a1110"/>
  <rect x="24" y="24" width="592" height="912" rx="34" fill="url(#bg-cups_queen)"/>
  <rect x="24" y="24" width="592" height="912" rx="34" filter="url(#grain-cups_queen)"/>
  <circle cx="320" cy="424" r="268" fill="url(#glow-cups_queen)"/>
  <g fill="none" stroke="#d4b66c" stroke-linecap="round" stroke-linejoin="round">
    <rect x="34" y="34" width="572" height="892" rx="30" stroke-width="4" opacity=".62"/>
    <rect x="56" y="56" width="528" height="848" rx="22" stroke-width="1.5" opacity=".56"/>
    <rect x="78" y="78" width="484" height="804" rx="14" stroke-width="1" opacity=".34"/>
    <path d="M112 132h118M410 132h118M112 828h118M410 828h118" stroke-width="2" opacity=".55"/>
    <path d="M112 132c30 28 58 28 88 0M440 132c30 28 58 28 88 0M112 828c30-28 58-28 88 0M440 828c30-28 58-28 88 0" stroke-width="2" opacity=".48"/>
    <path d="M92 230c40-52 40-100 0-152M548 230c-40-52-40-100 0-152M92 730c40 52 40 100 0 152M548 730c-40 52-40 100 0 152" stroke-width="2.5" opacity=".42"/>
  </g>
  <g opacity=".95"><circle cx="320" cy="430" r="88" fill="none" stroke="#fff0ca" stroke-width="1" opacity="0.16"/><circle cx="320" cy="430" r="126" fill="none" stroke="#fff0ca" stroke-width="2" opacity="0.21000000000000002"/><circle cx="320" cy="430" r="176" fill="none" stroke="#fff0ca" stroke-width="1" opacity="0.26"/><circle cx="320" cy="430" r="222" fill="none" stroke="#fff0ca" stroke-width="1" opacity="0.31000000000000005"/><path d="M518.0 430.0 538.0 430.0" stroke="#fff0ca" stroke-width="2" opacity=".32"/><path d="M515.0 464.4 524.8 466.1" stroke="#fff0ca" stroke-width="1" opacity=".32"/><path d="M506.1 497.7 515.5 501.1" stroke="#fff0ca" stroke-width="1" opacity=".32"/><path d="M491.5 529.0 508.8 539.0" stroke="#fff0ca" stroke-width="2" opacity=".32"/><path d="M471.7 557.3 479.3 563.7" stroke="#fff0ca" stroke-width="1" opacity=".32"/><path d="M447.3 581.7 453.7 589.3" stroke="#fff0ca" stroke-width="1" opacity=".32"/><path d="M419.0 601.5 429.0 618.8" stroke="#fff0ca" stroke-width="2" opacity=".32"/><path d="M387.7 616.1 391.1 625.5" stroke="#fff0ca" stroke-width="1" opacity=".32"/><path d="M354.4 625.0 356.1 634.8" stroke="#fff0ca" stroke-width="1" opacity=".32"/><path d="M320.0 628.0 320.0 648.0" stroke="#fff0ca" stroke-width="2" opacity=".32"/><path d="M285.6 625.0 283.9 634.8" stroke="#fff0ca" stroke-width="1" opacity=".32"/><path d="M252.3 616.1 248.9 625.5" stroke="#fff0ca" stroke-width="1" opacity=".32"/><path d="M221.0 601.5 211.0 618.8" stroke="#fff0ca" stroke-width="2" opacity=".32"/><path d="M192.7 581.7 186.3 589.3" stroke="#fff0ca" stroke-width="1" opacity=".32"/><path d="M168.3 557.3 160.7 563.7" stroke="#fff0ca" stroke-width="1" opacity=".32"/><path d="M148.5 529.0 131.2 539.0" stroke="#fff0ca" stroke-width="2" opacity=".32"/><path d="M133.9 497.7 124.5 501.1" stroke="#fff0ca" stroke-width="1" opacity=".32"/><path d="M125.0 464.4 115.2 466.1" stroke="#fff0ca" stroke-width="1" opacity=".32"/><path d="M122.0 430.0 102.0 430.0" stroke="#fff0ca" stroke-width="2" opacity=".32"/><path d="M125.0 395.6 115.2 393.9" stroke="#fff0ca" stroke-width="1" opacity=".32"/><path d="M133.9 362.3 124.5 358.9" stroke="#fff0ca" stroke-width="1" opacity=".32"/><path d="M148.5 331.0 131.2 321.0" stroke="#fff0ca" stroke-width="2" opacity=".32"/><path d="M168.3 302.7 160.7 296.3" stroke="#fff0ca" stroke-width="1" opacity=".32"/><path d="M192.7 278.3 186.3 270.7" stroke="#fff0ca" stroke-width="1" opacity=".32"/><path d="M221.0 258.5 211.0 241.2" stroke="#fff0ca" stroke-width="2" opacity=".32"/><path d="M252.3 243.9 248.9 234.5" stroke="#fff0ca" stroke-width="1" opacity=".32"/><path d="M285.6 235.0 283.9 225.2" stroke="#fff0ca" stroke-width="1" opacity=".32"/><path d="M320.0 232.0 320.0 212.0" stroke="#fff0ca" stroke-width="2" opacity=".32"/><path d="M354.4 235.0 356.1 225.2" stroke="#fff0ca" stroke-width="1" opacity=".32"/><path d="M387.7 243.9 391.1 234.5" stroke="#fff0ca" stroke-width="1" opacity=".32"/><path d="M419.0 258.5 429.0 241.2" stroke="#fff0ca" stroke-width="2" opacity=".32"/><path d="M447.3 278.3 453.7 270.7" stroke="#fff0ca" stroke-width="1" opacity=".32"/><path d="M471.7 302.7 479.3 296.3" stroke="#fff0ca" stroke-width="1" opacity=".32"/><path d="M491.5 331.0 508.8 321.0" stroke="#fff0ca" stroke-width="2" opacity=".32"/><path d="M506.1 362.3 515.5 358.9" stroke="#fff0ca" stroke-width="1" opacity=".32"/><path d="M515.0 395.6 524.8 393.9" stroke="#fff0ca" stroke-width="1" opacity=".32"/><path d="M461.4 539.1 502.3 434.8" stroke="#fff0ca" stroke-width=".8" opacity=".16"/><path d="M380.2 696.7 350.7 215.3" stroke="#fff0ca" stroke-width=".8" opacity=".16"/><path d="M225.2 343.7 436.8 197.7" stroke="#fff0ca" stroke-width=".8" opacity=".16"/><path d="M127.0 524.9 496.5 598.3" stroke="#fff0ca" stroke-width=".8" opacity=".16"/><path d="M172.6 683.5 431.9 681.7" stroke="#fff0ca" stroke-width=".8" opacity=".16"/><path d="M504.7 197.9 208.2 377.6" stroke="#fff0ca" stroke-width=".8" opacity=".16"/><path d="M323.3 340.2 180.3 585.1" stroke="#fff0ca" stroke-width=".8" opacity=".16"/><path d="M370.6 360.9 480.7 354.2" stroke="#fff0ca" stroke-width=".8" opacity=".16"/><path d="M379.7 254.1 200.1 181.3" stroke="#fff0ca" stroke-width=".8" opacity=".16"/><path d="M269.8 523.3 391.9 507.8" stroke="#fff0ca" stroke-width=".8" opacity=".16"/><path d="M368.0 324.2 231.7 239.3" stroke="#fff0ca" stroke-width=".8" opacity=".16"/><path d="M438.9 685.3 163.0 233.5" stroke="#fff0ca" stroke-width=".8" opacity=".16"/><path d="M204.8 400.3 360.8 196.1" stroke="#fff0ca" stroke-width=".8" opacity=".16"/><path d="M135.0 396.0 143.7 430.7" stroke="#fff0ca" stroke-width=".8" opacity=".16"/><path d="M188.5 267.5 466.1 262.7" stroke="#fff0ca" stroke-width=".8" opacity=".16"/><path d="M289.3 444.9 122.1 684.7" stroke="#fff0ca" stroke-width=".8" opacity=".16"/><path d="M415.7 184.0 391.7 181.3" stroke="#fff0ca" stroke-width=".8" opacity=".16"/><path d="M286.4 424.8 160.4 381.3" stroke="#fff0ca" stroke-width=".8" opacity=".16"/><circle cx="303.2" cy="195.3" r="4.4" fill="#fff0ca" opacity="0.33"/><circle cx="113.4" cy="384.4" r="3.2" fill="#fff0ca" opacity="0.50"/><circle cx="364.1" cy="288.1" r="2.3" fill="#fff0ca" opacity="0.29"/><circle cx="163.2" cy="673.1" r="3.9" fill="#fff0ca" opacity="0.44"/><circle cx="134.8" cy="670.0" r="1.6" fill="#fff0ca" opacity="0.47"/><circle cx="353.7" cy="398.7" r="2.9" fill="#fff0ca" opacity="0.38"/><circle cx="440.6" cy="428.3" r="2.4" fill="#fff0ca" opacity="0.58"/><circle cx="477.8" cy="528.5" r="3.6" fill="#fff0ca" opacity="0.47"/><circle cx="194.4" cy="311.0" r="4.1" fill="#fff0ca" opacity="0.19"/><circle cx="140.6" cy="581.0" r="1.8" fill="#fff0ca" opacity="0.45"/><circle cx="320.0" cy="435.9" r="3.7" fill="#fff0ca" opacity="0.38"/><circle cx="220.7" cy="411.4" r="2.2" fill="#fff0ca" opacity="0.58"/><circle cx="332.1" cy="273.4" r="2.2" fill="#fff0ca" opacity="0.42"/><circle cx="509.8" cy="353.1" r="4.6" fill="#fff0ca" opacity="0.49"/><circle cx="334.9" cy="346.1" r="2.5" fill="#fff0ca" opacity="0.43"/><circle cx="129.5" cy="273.2" r="4.6" fill="#fff0ca" opacity="0.23"/><circle cx="517.0" cy="601.4" r="2.7" fill="#fff0ca" opacity="0.54"/><circle cx="285.4" cy="344.4" r="3.8" fill="#fff0ca" opacity="0.57"/><circle cx="345.2" cy="501.0" r="4.3" fill="#fff0ca" opacity="0.28"/><circle cx="119.2" cy="170.5" r="5.0" fill="#fff0ca" opacity="0.26"/><circle cx="534.6" cy="263.7" r="3.7" fill="#fff0ca" opacity="0.62"/><circle cx="177.5" cy="187.7" r="3.8" fill="#fff0ca" opacity="0.31"/><circle cx="316.6" cy="464.5" r="2.3" fill="#fff0ca" opacity="0.55"/><circle cx="299.1" cy="300.7" r="3.7" fill="#fff0ca" opacity="0.27"/><circle cx="124.7" cy="548.1" r="4.4" fill="#fff0ca" opacity="0.65"/><circle cx="279.3" cy="233.6" r="2.6" fill="#fff0ca" opacity="0.65"/><circle cx="457.2" cy="177.3" r="4.4" fill="#fff0ca" opacity="0.23"/><circle cx="231.1" cy="476.5" r="3.1" fill="#fff0ca" opacity="0.30"/><circle cx="438.3" cy="616.8" r="4.7" fill="#fff0ca" opacity="0.42"/><circle cx="205.1" cy="465.9" r="1.5" fill="#fff0ca" opacity="0.26"/></g>

  <g opacity=".28" stroke="#fff0ca" stroke-width="1" fill="none">
    <path d="M104 156C180 112 260 112 320 156s140 44 216 0"/>
    <path d="M104 804c76 44 156 44 216 0s140-44 216 0"/>
    <path d="M150 230c-28 110-28 286 0 396M490 230c28 110 28 286 0 396"/>
  </g>

  <g filter="url(#shadow-cups_queen)"><path fill="none" stroke="#d4b66c" stroke-width="9" stroke-linecap="round" stroke-linejoin="round" d="M236 604h168l-34-176H270l-34 176Z"/><path fill="#d4b66c" opacity=".9" d="M250 280h140l-32 96h-76l-32-96Z"/><circle cx="320" cy="232" r="44" fill="#d4b66c" opacity=".92"/></g>

  <g fill="#d4b66c" opacity=".86">
    <circle cx="102" cy="102" r="8"/><circle cx="538" cy="102" r="8"/><circle cx="102" cy="858" r="8"/><circle cx="538" cy="858" r="8"/>
    <path d="m320 94 10 20 22 3-16 16 4 22-20-10-20 10 4-22-16-16 22-3Z"/>
    <path d="m320 806 10 20 22 3-16 16 4 22-20-10-20 10 4-22-16-16 22-3Z"/>
  </g>

  <text x="320" y="126" text-anchor="middle" fill="#fff2cf" font-size="36" font-family="Georgia, 'Times New Roman', serif" letter-spacing="5">Q</text>
  <text x="320" y="794" text-anchor="middle" fill="#fff2cf" font-size="39" font-family="Georgia, 'Times New Roman', serif" font-weight="700">Queen of Cups</text>
  <text x="320" y="842" text-anchor="middle" fill="#f5d59d" opacity=".72" font-size="17" font-family="Georgia, serif" letter-spacing="2.8">QUEEN OF CUPS</text>
</svg>