<svg xmlns="http://www.w3.org/2000/svg" width="768" height="1152" viewBox="0 0 640 960" role="img" aria-label="Death tarot card">
  <desc>Ornate occult tarot card illustration, mysterious and richly layered. Warm antique palette, deep burgundy, umber, bronze gold, smoky teal, parchment highlights. Complex celestial geometry, astrological circles, sigils, constellation lines, engraved border. Center symbol should be iconic and readable, surrounded by ritual details and subtle texture. No photorealism, no modern UI, no plain flat icon, no empty background.</desc>
  <defs>
    <linearGradient id="bg-death" x1="0" x2="1" y1="0" y2="1">
      <stop offset="0" stop-color="#1e1516"/>
      <stop offset=".24" stop-color="#7f3942"/>
      <stop offset=".52" stop-color="#2b2b33"/>
      <stop offset=".78" stop-color="#342019"/>
      <stop offset="1" stop-color="#111516"/>
    </linearGradient>
    <radialGradient id="glow-death" cx="50%" cy="38%" r="64%">
      <stop offset="0" stop-color="#e8e0c7" stop-opacity=".62"/>
      <stop offset=".45" stop-color="#e8e0c7" stop-opacity=".16"/>
      <stop offset="1" stop-color="#000" stop-opacity="0"/>
    </radialGradient>
    <filter id="grain-death">
      <feTurbulence type="fractalNoise" baseFrequency=".85" numOctaves="2" seed="78" result="noise"/>
      <feColorMatrix type="saturate" values="0"/>
      <feComponentTransfer>
        <feFuncA type="table" tableValues="0 .11"/>
      </feComponentTransfer>
    </filter>
    <filter id="shadow-death" x="-30%" y="-30%" width="160%" height="160%">
      <feDropShadow dx="0" dy="14" stdDeviation="16" flood-color="#130c08" flood-opacity=".52"/>
    </filter>
  </defs>

  <rect width="640" height="960" rx="42" fill="#1a1110"/>
  <rect x="24" y="24" width="592" height="912" rx="34" fill="url(#bg-death)"/>
  <rect x="24" y="24" width="592" height="912" rx="34" filter="url(#grain-death)"/>
  <circle cx="320" cy="424" r="268" fill="url(#glow-death)"/>
  <g fill="none" stroke="#e8e0c7" stroke-linecap="round" stroke-linejoin="round">
    <rect x="34" y="34" width="572" height="892" rx="30" stroke-width="4" opacity=".62"/>
    <rect x="56" y="56" width="528" height="848" rx="22" stroke-width="1.5" opacity=".56"/>
    <rect x="78" y="78" width="484" height="804" rx="14" stroke-width="1" opacity=".34"/>
    <path d="M112 132h118M410 132h118M112 828h118M410 828h118" stroke-width="2" opacity=".55"/>
    <path d="M112 132c30 28 58 28 88 0M440 132c30 28 58 28 88 0M112 828c30-28 58-28 88 0M440 828c30-28 58-28 88 0" stroke-width="2" opacity=".48"/>
    <path d="M92 230c40-52 40-100 0-152M548 230c-40-52-40-100 0-152M92 730c40 52 40 100 0 152M548 730c-40 52-40 100 0 152" stroke-width="2.5" opacity=".42"/>
  </g>
  <g opacity=".95"><circle cx="320" cy="430" r="88" fill="none" stroke="#fff0ca" stroke-width="1" opacity="0.16"/><circle cx="320" cy="430" r="126" fill="none" stroke="#fff0ca" stroke-width="2" opacity="0.21000000000000002"/><circle cx="320" cy="430" r="176" fill="none" stroke="#fff0ca" stroke-width="1" opacity="0.26"/><circle cx="320" cy="430" r="222" fill="none" stroke="#fff0ca" stroke-width="1" opacity="0.31000000000000005"/><path d="M518.0 430.0 538.0 430.0" stroke="#fff0ca" stroke-width="2" opacity=".32"/><path d="M515.0 464.4 524.8 466.1" stroke="#fff0ca" stroke-width="1" opacity=".32"/><path d="M506.1 497.7 515.5 501.1" stroke="#fff0ca" stroke-width="1" opacity=".32"/><path d="M491.5 529.0 508.8 539.0" stroke="#fff0ca" stroke-width="2" opacity=".32"/><path d="M471.7 557.3 479.3 563.7" stroke="#fff0ca" stroke-width="1" opacity=".32"/><path d="M447.3 581.7 453.7 589.3" stroke="#fff0ca" stroke-width="1" opacity=".32"/><path d="M419.0 601.5 429.0 618.8" stroke="#fff0ca" stroke-width="2" opacity=".32"/><path d="M387.7 616.1 391.1 625.5" stroke="#fff0ca" stroke-width="1" opacity=".32"/><path d="M354.4 625.0 356.1 634.8" stroke="#fff0ca" stroke-width="1" opacity=".32"/><path d="M320.0 628.0 320.0 648.0" stroke="#fff0ca" stroke-width="2" opacity=".32"/><path d="M285.6 625.0 283.9 634.8" stroke="#fff0ca" stroke-width="1" opacity=".32"/><path d="M252.3 616.1 248.9 625.5" stroke="#fff0ca" stroke-width="1" opacity=".32"/><path d="M221.0 601.5 211.0 618.8" stroke="#fff0ca" stroke-width="2" opacity=".32"/><path d="M192.7 581.7 186.3 589.3" stroke="#fff0ca" stroke-width="1" opacity=".32"/><path d="M168.3 557.3 160.7 563.7" stroke="#fff0ca" stroke-width="1" opacity=".32"/><path d="M148.5 529.0 131.2 539.0" stroke="#fff0ca" stroke-width="2" opacity=".32"/><path d="M133.9 497.7 124.5 501.1" stroke="#fff0ca" stroke-width="1" opacity=".32"/><path d="M125.0 464.4 115.2 466.1" stroke="#fff0ca" stroke-width="1" opacity=".32"/><path d="M122.0 430.0 102.0 430.0" stroke="#fff0ca" stroke-width="2" opacity=".32"/><path d="M125.0 395.6 115.2 393.9" stroke="#fff0ca" stroke-width="1" opacity=".32"/><path d="M133.9 362.3 124.5 358.9" stroke="#fff0ca" stroke-width="1" opacity=".32"/><path d="M148.5 331.0 131.2 321.0" stroke="#fff0ca" stroke-width="2" opacity=".32"/><path d="M168.3 302.7 160.7 296.3" stroke="#fff0ca" stroke-width="1" opacity=".32"/><path d="M192.7 278.3 186.3 270.7" stroke="#fff0ca" stroke-width="1" opacity=".32"/><path d="M221.0 258.5 211.0 241.2" stroke="#fff0ca" stroke-width="2" opacity=".32"/><path d="M252.3 243.9 248.9 234.5" stroke="#fff0ca" stroke-width="1" opacity=".32"/><path d="M285.6 235.0 283.9 225.2" stroke="#fff0ca" stroke-width="1" opacity=".32"/><path d="M320.0 232.0 320.0 212.0" stroke="#fff0ca" stroke-width="2" opacity=".32"/><path d="M354.4 235.0 356.1 225.2" stroke="#fff0ca" stroke-width="1" opacity=".32"/><path d="M387.7 243.9 391.1 234.5" stroke="#fff0ca" stroke-width="1" opacity=".32"/><path d="M419.0 258.5 429.0 241.2" stroke="#fff0ca" stroke-width="2" opacity=".32"/><path d="M447.3 278.3 453.7 270.7" stroke="#fff0ca" stroke-width="1" opacity=".32"/><path d="M471.7 302.7 479.3 296.3" stroke="#fff0ca" stroke-width="1" opacity=".32"/><path d="M491.5 331.0 508.8 321.0" stroke="#fff0ca" stroke-width="2" opacity=".32"/><path d="M506.1 362.3 515.5 358.9" stroke="#fff0ca" stroke-width="1" opacity=".32"/><path d="M515.0 395.6 524.8 393.9" stroke="#fff0ca" stroke-width="1" opacity=".32"/><path d="M410.9 604.9 380.8 385.4" stroke="#fff0ca" stroke-width=".8" opacity=".16"/><path d="M217.4 527.0 181.5 198.2" stroke="#fff0ca" stroke-width=".8" opacity=".16"/><path d="M509.2 598.6 225.4 265.6" stroke="#fff0ca" stroke-width=".8" opacity=".16"/><path d="M275.1 307.7 492.1 661.1" stroke="#fff0ca" stroke-width=".8" opacity=".16"/><path d="M361.5 487.8 342.1 688.0" stroke="#fff0ca" stroke-width=".8" opacity=".16"/><path d="M429.5 630.3 183.7 253.5" stroke="#fff0ca" stroke-width=".8" opacity=".16"/><path d="M339.7 553.8 495.1 484.4" stroke="#fff0ca" stroke-width=".8" opacity=".16"/><path d="M144.1 650.3 432.6 211.4" stroke="#fff0ca" stroke-width=".8" opacity=".16"/><path d="M168.6 264.9 356.6 680.7" stroke="#fff0ca" stroke-width=".8" opacity=".16"/><path d="M365.3 648.7 306.1 301.0" stroke="#fff0ca" stroke-width=".8" opacity=".16"/><path d="M217.4 341.3 153.9 363.0" stroke="#fff0ca" stroke-width=".8" opacity=".16"/><path d="M176.6 602.9 472.4 681.3" stroke="#fff0ca" stroke-width=".8" opacity=".16"/><path d="M515.7 692.1 442.6 635.2" stroke="#fff0ca" stroke-width=".8" opacity=".16"/><path d="M376.8 350.0 436.2 417.5" stroke="#fff0ca" stroke-width=".8" opacity=".16"/><path d="M295.5 465.4 203.8 549.3" stroke="#fff0ca" stroke-width=".8" opacity=".16"/><path d="M384.7 303.2 498.4 448.0" stroke="#fff0ca" stroke-width=".8" opacity=".16"/><path d="M457.0 210.2 467.2 608.5" stroke="#fff0ca" stroke-width=".8" opacity=".16"/><path d="M467.6 640.0 441.6 603.3" stroke="#fff0ca" stroke-width=".8" opacity=".16"/><circle cx="346.5" cy="233.0" r="1.9" fill="#fff0ca" opacity="0.54"/><circle cx="527.8" cy="274.5" r="1.9" fill="#fff0ca" opacity="0.52"/><circle cx="220.5" cy="594.4" r="3.2" fill="#fff0ca" opacity="0.23"/><circle cx="185.6" cy="677.2" r="2.6" fill="#fff0ca" opacity="0.47"/><circle cx="161.6" cy="533.6" r="4.7" fill="#fff0ca" opacity="0.51"/><circle cx="217.0" cy="528.4" r="2.0" fill="#fff0ca" opacity="0.61"/><circle cx="222.4" cy="597.6" r="1.9" fill="#fff0ca" opacity="0.33"/><circle cx="499.1" cy="191.5" r="2.1" fill="#fff0ca" opacity="0.41"/><circle cx="215.6" cy="423.9" r="3.9" fill="#fff0ca" opacity="0.55"/><circle cx="330.7" cy="525.2" r="1.6" fill="#fff0ca" opacity="0.25"/><circle cx="391.8" cy="439.1" r="4.0" fill="#fff0ca" opacity="0.40"/><circle cx="169.2" cy="260.0" r="3.7" fill="#fff0ca" opacity="0.61"/><circle cx="495.0" cy="232.5" r="4.7" fill="#fff0ca" opacity="0.44"/><circle cx="425.1" cy="688.9" r="4.5" fill="#fff0ca" opacity="0.43"/><circle cx="275.9" cy="325.1" r="4.1" fill="#fff0ca" opacity="0.51"/><circle cx="393.1" cy="313.8" r="3.3" fill="#fff0ca" opacity="0.58"/><circle cx="142.5" cy="612.5" r="2.1" fill="#fff0ca" opacity="0.38"/><circle cx="402.4" cy="166.5" r="3.7" fill="#fff0ca" opacity="0.51"/><circle cx="187.5" cy="524.1" r="3.4" fill="#fff0ca" opacity="0.58"/><circle cx="142.5" cy="204.6" r="4.8" fill="#fff0ca" opacity="0.24"/><circle cx="234.9" cy="336.1" r="4.6" fill="#fff0ca" opacity="0.29"/><circle cx="208.2" cy="223.0" r="4.9" fill="#fff0ca" opacity="0.44"/><circle cx="462.0" cy="280.9" r="2.5" fill="#fff0ca" opacity="0.62"/><circle cx="261.1" cy="239.5" r="1.7" fill="#fff0ca" opacity="0.22"/><circle cx="400.7" cy="249.9" r="1.8" fill="#fff0ca" opacity="0.58"/><circle cx="408.9" cy="356.5" r="1.5" fill="#fff0ca" opacity="0.54"/><circle cx="275.0" cy="652.5" r="3.8" fill="#fff0ca" opacity="0.53"/><circle cx="522.4" cy="656.5" r="4.5" fill="#fff0ca" opacity="0.21"/><circle cx="277.1" cy="509.7" r="2.5" fill="#fff0ca" opacity="0.49"/><circle cx="129.5" cy="573.3" r="2.0" fill="#fff0ca" opacity="0.30"/></g>

  <g opacity=".28" stroke="#fff0ca" stroke-width="1" fill="none">
    <path d="M104 156C180 112 260 112 320 156s140 44 216 0"/>
    <path d="M104 804c76 44 156 44 216 0s140-44 216 0"/>
    <path d="M150 230c-28 110-28 286 0 396M490 230c28 110 28 286 0 396"/>
  </g>

  <g filter="url(#shadow-death)"><path fill="#e8e0c7" opacity=".93" d="M320 288c56 32 84 76 84 130 0 58-38 102-84 102s-84-44-84-102c0-54 28-98 84-130Z"/><path fill="none" stroke="#e8e0c7" stroke-width="4" stroke-linecap="round" stroke-linejoin="round" opacity=".86" d="M320 520v128M320 562c-62-36-110-28-142 30M322 560c62-38 112-30 148 28M274 394c32-46 60-48 92 0"/></g>

  <g fill="#e8e0c7" opacity=".86">
    <circle cx="102" cy="102" r="8"/><circle cx="538" cy="102" r="8"/><circle cx="102" cy="858" r="8"/><circle cx="538" cy="858" r="8"/>
    <path d="m320 94 10 20 22 3-16 16 4 22-20-10-20 10 4-22-16-16 22-3Z"/>
    <path d="m320 806 10 20 22 3-16 16 4 22-20-10-20 10 4-22-16-16 22-3Z"/>
  </g>

  <text x="320" y="126" text-anchor="middle" fill="#fff2cf" font-size="36" font-family="Georgia, 'Times New Roman', serif" letter-spacing="5">XIII</text>
  <text x="320" y="794" text-anchor="middle" fill="#fff2cf" font-size="39" font-family="Georgia, 'Times New Roman', serif" font-weight="700">Death</text>
  <text x="320" y="842" text-anchor="middle" fill="#f5d59d" opacity=".72" font-size="17" font-family="Georgia, serif" letter-spacing="2.8">WHITE ROSE</text>
</svg>